<svg width="624.9973510742187px" height="267.2px"
  xmlns="http://www.w3.org/2000/svg"
  viewBox="-62.498675537109364 -58.599999999999994 624.9973510742187 267.2"
  style="background: none;" preserveAspectRatio="xMidYMid">
  <defs>
    <linearGradient id="editing-shiny-gradient" x1="0.8715724127386971"
      x2="0.12842758726130288" y1="0.8345653031794291" y2="0.16543469682057088"
      gradientUnits="objectBoundingBox">
      <stop offset="0.0" stop-color="#ffb200"></stop>
      <stop offset="0.5" stop-color="#e10057"></stop>
      <stop offset="1.0" stop-color="#5a1a80"></stop>
    </linearGradient>
    <linearGradient id="editing-shiny-gradient2" x1="0" x2="0" y1="0" y2="1">
      <stop offset="0.2" stop-color="#fff" stop-opacity="0.8"></stop>
      <stop offset="0.8" stop-color="#fff" stop-opacity="0"></stop>
    </linearGradient>
    <filter id="editing-shiny2" x="-100%" y="-100%" width="300%" height="300%">
      <feMorphology operator="erode" radius="2"></feMorphology>
    </filter>
    <filter id="editing-shiny" x="-100%" y="-100%" width="300%" height="300%">
      <feFlood flood-color="#fff" result="flood"></feFlood>
      <feConvolveMatrix in="SourceGraphic" result="conv" order="8,8" divisor="1"
        kernelMatrix="0 0 0 0 0 0 0 0 0 0 0 1 1 0 0 0 0 0 0 1 1 0 0 0 0 0 1 0 0 1 0 0 0 0 1 0 0 1 0 0 0 1 0 0 0 0 1 0 0 1 1 0 0 1 1 0 0 0 0 1 1 0 0 0 ">
      </feConvolveMatrix>
      <feOffset dx="0" dy="4" in="conv" result="offset"></feOffset>
      <feComposite operator="in" in="flood" in2="offset" result="comp">
      </feComposite>
      <feGaussianBlur in="offset" stdDeviation="3" result="shadow">
      </feGaussianBlur>
      <feColorMatrix in="shadow" type="matrix"
        values="0.7 0 0 0 0  0 0.7 0 0 0  0 0 0.7 0 0  0 0 0 0.3 0"
        result="dark-shadow"></feColorMatrix>
      <feOffset dx="0" dy="4" in="dark-shadow" result="offset-shadow">
      </feOffset>
      <feOffset dx="0" dy="2" in="conv" result="offset-2"></feOffset>
      <feComposite operator="out" in="offset" in2="offset-2" result="edge-diff">
      </feComposite>
      <feGaussianBlur in="edge-diff" stdDeviation="1" result="edge-blur">
      </feGaussianBlur>
      <feColorMatrix in="edge-blur" result="edge-shadow" type="matrix"
        values="0 0 0 0 0  0 0 0 0 0  0 0 0 0 0  0 0 0 0.5 0"></feColorMatrix>
      <feComposite operator="in" in="edge-shadow" in2="offset"
        result="edge-shadow-in"></feComposite>
      <feOffset dx="0" dy="1" in="edge-shadow-in" result="edge-shadow-final">
      </feOffset>
      <feMerge result="out">
        <feMergeNode in="offset-shadow"></feMergeNode>
        <feMergeNode in="comp"></feMergeNode>
        <feMergeNode in="edge-shadow-final"></feMergeNode>
        <feMergeNode in="SourceGraphic"></feMergeNode>
      </feMerge>
    </filter>
  </defs>
  <g filter="url(#editing-shiny)">
    <g transform="translate(30.97726321220398, 141.410005569458)">
      <path
        d="M48.72 36.83L48.72 36.83L48.72 36.83Q43.21 36.83 37.92 32.91L37.92 32.91L37.92 32.91Q32.63 29.00 32.63 24.21L32.63 24.21L32.63 24.21Q32.63 21.17 35.67 21.17L35.67 21.17L35.67 21.17Q36.39 21.17 37.84 21.46L37.84 21.46L37.84 21.46Q39.58 27.55 40.74 29.72L40.74 29.72L40.74 29.72Q43.21 33.64 49.15 33.64L49.15 33.64L49.15 33.64Q66.99 33.64 92.94-15.08L92.94-15.08L119.04-61.62L119.04-61.62Q91.06-31.75 79.39-20.08L79.39-20.08L79.39-20.08Q67.71-8.41 63.36-5.80L63.36-5.80L63.36-5.80Q54.66-0.58 49.01-0.58L49.01-0.58L49.01-0.58Q40.74-0.58 40.74-10.29L40.74-10.29L40.74-10.29Q40.74-21.89 50.60-34.22L50.60-34.22L50.60-34.22Q51.33-35.09 56.77-41.69L56.77-41.69L56.77-41.69Q62.20-48.28 69.53-57.42L69.53-57.42L69.53-57.42Q76.85-66.55 81.71-75.04L81.71-75.04L81.71-75.04Q86.56-83.52 86.56-86.93L86.56-86.93L86.56-86.93Q86.56-90.33 84.53-91.35L84.53-91.35L84.53-91.35Q80.33-93.52 74.96-93.52L74.96-93.52L74.96-93.52Q59.59-93.52 32.48-74.96L32.48-74.96L32.48-74.96Q21.17-67.28 14.50-57.13L14.50-57.13L14.50-57.13Q7.83-46.98 7.83-38.42L7.83-38.42L7.83-38.42Q7.83-29.87 16.09-27.69L16.09-27.69L16.09-27.69Q18.70-26.97 21.17-26.97L21.17-26.97L21.17-26.97Q28.56-26.97 37.55-33.35L37.55-33.35L37.55-33.35Q48.14-40.45 49.44-40.89L49.44-40.89L49.44-40.89Q47.99-35.52 37.99-29.14L37.99-29.14L37.99-29.14Q26.97-22.33 17.40-22.33L17.40-22.33L17.40-22.33Q16.09-22.33 12.54-22.84L12.54-22.84L12.54-22.84Q8.99-23.34 5.51-28.13L5.51-28.13L5.51-28.13Q2.03-32.91 2.03-39.73L2.03-39.73L2.03-39.73Q2.03-59.45 30.88-80.04L30.88-80.04L30.88-80.04Q39.29-86.13 53.07-91.06L53.07-91.06L53.07-91.06Q66.84-95.99 75.33-95.99L75.33-95.99L75.33-95.99Q83.81-95.99 88.23-93.31L88.23-93.31L88.23-93.31Q92.65-90.63 92.65-84.75L92.65-84.75L92.65-84.75Q92.65-78.88 84.53-66.48L84.53-66.48L84.53-66.48Q76.41-54.08 58.87-32.77L58.87-32.77L58.87-32.77Q55.24-28.56 52.20-21.82L52.20-21.82L52.20-21.82Q49.15-15.08 49.15-11.09L49.15-11.09L49.15-11.09Q49.15-7.10 52.27-7.10L52.27-7.10L52.27-7.10Q55.39-7.10 61.62-11.60L61.62-11.60L61.62-11.60Q79.31-24.21 96.93-42.20L96.93-42.20L96.93-42.20Q114.55-60.17 122.81-72.35L122.81-72.35L122.81-72.35Q128.76-80.91 135.43-80.91L135.43-80.91L135.43-80.91Q137.75-80.91 137.75-79.46L137.75-79.46L137.75-79.46Q137.75-79.17 137.46-78.30L137.46-78.30L137.46-78.30Q119.19-46.40 87.72 6.38L87.72 6.38L87.72 6.38Q78.44 21.60 67.93 29.22L67.93 29.22L67.93 29.22Q57.42 36.83 48.72 36.83ZM176.03-43.35L176.03-43.35L178.06-43.79L178.06-43.79Q179.65-43.79 181.10-42.48L181.10-42.48L181.10-42.48Q182.55-41.18 182.55-40.45L182.55-40.45L182.55-40.45Q182.55-39.73 173.56-26.46L173.56-26.46L173.56-26.46Q164.57-13.19 164.57-7.97L164.57-7.97L164.57-7.97Q164.57-7.54 164.72-7.10L164.72-7.10L164.72-7.10Q165.44-3.77 167.91-3.77L167.91-3.77L167.91-3.77Q175.45-3.77 195.46-28.71L195.46-28.71L195.46-28.71Q195.89-29.29 196.47-29.29L196.47-29.29L196.47-29.29Q197.05-29.29 197.05-28.20L197.05-28.20L197.05-28.20Q197.05-27.11 195.75-25.38L195.75-25.38L195.75-25.38Q177.19-0.58 167.47-0.58L167.47-0.58L167.47-0.58Q166.17-0.58 165.01-1.01L165.01-1.01L165.01-1.01Q158.63-3.48 158.63-10.58L158.63-10.58L158.63-10.58Q158.63-13.05 159.21-15.51L159.21-15.51L150.22-6.81L150.22-6.81Q141.66 0.72 137.82 0.72L137.82 0.72L137.82 0.72Q133.98 0.72 130.50-1.74L130.50-1.74L130.50-1.74Q126.58-4.64 126.58-9.42L126.58-9.42L126.58-9.42Q126.58-20.01 141.38-34.73L141.38-34.73L141.38-34.73Q156.16-49.44 168.49-49.44L168.49-49.44L168.49-49.44Q173.27-49.44 174.87-46.11L174.87-46.11L174.87-46.11Q175.30-44.95 175.59-44.15L175.59-44.15L175.59-44.15Q175.88-43.35 176.03-43.35ZM132.67-7.68L132.67-7.68L132.67-7.68Q132.67-2.46 136.30-2.46L136.30-2.46L136.30-2.46Q144.71-2.46 159.21-20.88L159.21-20.88L174.58-42.05L174.58-42.05Q173.42-44.08 170.81-44.08L170.81-44.08L170.81-44.08Q161.96-44.08 147.32-30.38L147.32-30.38L147.32-30.38Q132.67-16.67 132.67-7.68ZM210.97-45.82L210.97-45.82L210.97-45.82Q214.89-45.82 214.89-42.77L214.89-42.77L214.89-42.77Q214.89-41.90 214.45-41.03L214.45-41.03L214.45-41.03Q201.41-22.91 198.79-13.63L198.79-13.63L198.79-13.63Q232.58-47.41 239.83-47.41L239.83-47.41L239.83-47.41Q240.56-47.56 241.13-47.56L241.13-47.56L241.13-47.56Q245.19-47.56 245.19-43.93L245.19-43.93L245.19-43.93Q245.19-43.21 244.91-42.48L244.91-42.48L244.91-42.48Q244.62-41.76 239.10-34.66L239.10-34.66L239.10-34.66Q232.72-27.11 228.30-20.15L228.30-20.15L228.30-20.15Q223.88-13.19 223.88-8.55L223.88-8.55L223.88-8.55Q223.88-3.91 225.91-3.91L225.91-3.91L225.91-3.91Q232.29-3.91 248.09-21.46L248.09-21.46L248.09-21.46Q248.38-21.75 249.11-22.76L249.11-22.76L249.11-22.76Q251.28-25.38 251.72-25.38L251.72-25.38L251.72-25.38Q252.15-25.38 252.15-23.92L252.15-23.92L252.15-23.92Q252.15-22.47 250.13-20.15L250.13-20.15L250.13-20.15Q232.14 0.29 224.60 0.29L224.60 0.29L224.60 0.29Q217.50 0.29 217.50-7.54L217.50-7.54L217.50-7.54Q217.50-15.37 223.30-25.52L223.30-25.52L232.58-40.60L232.58-40.60Q222.72-33.35 215.03-24.72L215.03-24.72L215.03-24.72Q207.35-16.09 201.04-7.97L201.04-7.97L201.04-7.97Q194.73 0.14 193.72 0.14L193.72 0.14L193.72 0.14Q191.54 0.14 190.31-1.67L190.31-1.67L190.31-1.67Q189.08-3.48 189.08-6.16L189.08-6.16L189.08-6.16Q189.08-8.84 190.97-13.34L190.97-13.34L190.97-13.34Q192.85-17.83 195.75-24.21L195.75-24.21L187.05-15.08L187.05-15.08Q183.86-11.89 183.06-11.89L183.06-11.89L183.06-11.89Q182.26-11.89 182.26-12.83L182.26-12.83L182.26-12.83Q182.26-13.77 183.42-14.93L183.42-14.93L183.42-14.93Q188.79-20.30 192.70-25.23L192.70-25.23L192.70-25.23Q196.47-30.16 208.22-44.08L208.22-44.08L208.22-44.08Q209.53-45.82 210.97-45.82ZM294.50-44.22L294.50-44.22L296.52-44.66L296.52-44.66Q298.41-44.66 299.50-43.50L299.50-43.50L299.50-43.50Q300.58-42.34 300.58-41.69L300.58-41.69L300.58-41.69Q300.58-41.03 300.44-40.24L300.44-40.24L300.44-40.24Q300.30-39.44 296.24-32.91L296.24-32.91L296.24-32.91Q291.16-24.07 287.82-17.98L287.82-17.98L287.82-17.98Q276.08 3.91 269.84 12.03L269.84 12.03L269.84 12.03Q256.50 29.72 244.47 29.72L244.47 29.72L244.47 29.72Q240.26 29.72 237.15 26.17L237.15 26.17L237.15 26.17Q234.03 22.62 233.88 18.27L233.88 18.27L233.88 18.27Q234.32 16.53 235.19 16.53L235.19 16.53L235.19 16.53Q235.63 16.53 235.91 17.54L235.91 17.54L235.91 17.54Q236.64 21.31 238.67 23.34L238.67 23.34L238.67 23.34Q240.70 25.38 242.73 25.38L242.73 25.38L242.73 25.38Q251.00 25.38 260.42 14.50L260.42 14.50L260.42 14.50Q266.65 7.25 274.19-6.67L274.19-6.67L281.44-21.02L270.57-10.00L270.57-10.00Q260.13 0 256.29 0L256.29 0L256.29 0Q252.44 0 248.97-2.61L248.97-2.61L248.97-2.61Q245.05-5.51 245.05-10.29L245.05-10.29L245.05-10.29Q245.05-20.88 259.91-35.52L259.91-35.52L259.91-35.52Q274.77-50.17 286.95-50.17L286.95-50.17L286.95-50.17Q291.88-50.17 293.33-46.98L293.33-46.98L293.33-46.98Q293.77-45.82 294.06-45.02L294.06-45.02L294.06-45.02Q294.35-44.22 294.50-44.22ZM251.14-8.55L251.14-8.55L251.14-8.55Q251.14-3.33 254.76-3.33L254.76-3.33L254.76-3.33Q263.18-3.33 277.68-21.75L277.68-21.75L293.05-42.92L293.05-42.92Q292.18-44.95 289.42-44.95L289.42-44.95L289.42-44.95Q280.43-44.95 265.78-31.10L265.78-31.10L265.78-31.10Q251.14-17.25 251.14-8.55ZM337.56-46.69L337.56-46.69L358.44-46.98L358.44-46.98Q358.88-46.69 358.88-46.54L358.88-46.54L358.88-46.54Q358.88-45.24 340.82-42.92L340.82-42.92L340.82-42.92Q322.77-40.60 321.32-40.16L321.32-40.16L321.32-40.16Q318.56-37.70 311.17-25.45L311.17-25.45L311.17-25.45Q303.77-13.19 303.77-7.54L303.77-7.54L303.77-7.54Q303.77-2.17 311.17-2.17L311.17-2.17L311.17-2.17Q314.65-2.17 320.30-4.35L320.30-4.35L320.30-4.35Q325.96-6.52 329.00-8.41L329.00-8.41L329.00-8.41Q337.13-13.48 346.40-23.34L346.40-23.34L346.40-23.34Q348.43-25.38 349.16-25.38L349.16-25.38L349.16-25.38Q349.59-25.38 349.59-24.50L349.59-24.50L349.59-24.50Q349.59-23.63 347.42-21.02L347.42-21.02L347.42-21.02Q339.88-11.74 330.45-6.09L330.45-6.09L330.45-6.09Q319.14 0.87 308.85 0.87L308.85 0.87L308.85 0.87Q304.35 0.87 301.53-1.09L301.53-1.09L301.53-1.09Q298.70-3.04 298.70-8.99L298.70-8.99L298.70-8.99Q298.70-14.93 303.92-25.30L303.92-25.30L303.92-25.30Q309.14-35.67 311.89-40.74L311.89-40.74L311.89-40.74Q309.86-40.31 308.41-40.31L308.41-40.31L308.41-40.31Q304.21-40.31 304.21-43.64L304.21-43.64L304.21-43.64Q304.21-46.11 307.69-47.13L307.69-47.13L307.69-47.13Q308.13-47.13 308.99-47.27L308.99-47.27L317.40-47.27L317.40-47.27Q320.01-50.60 323.35-54.95L323.35-54.95L323.35-54.95Q327.41-60.17 328.86-60.17L328.86-60.17L328.86-60.17Q330.31-60.17 332.48-59.01L332.48-59.01L332.48-59.01Q334.66-57.85 334.66-56.26L334.66-56.26L334.66-56.26Q334.66-54.66 327.70-46.83L327.70-46.83L327.70-46.83Q331.47-46.69 337.56-46.69ZM352.49-5.94L352.49-5.94L352.49-5.94Q346.69-1.88 344.23-1.88L344.23-1.88L344.23-1.88Q340.89-1.88 340.89-5.51L340.89-5.51L340.89-5.51Q340.89-6.81 341.76-8.70L341.76-8.70L341.76-8.70Q342.63-10.58 343.50-10.58L343.50-10.58L343.50-10.58Q344.81-10.58 344.08-8.41L344.08-8.41L344.08-8.41Q343.65-6.23 345.39-6.23L345.39-6.23L345.39-6.23Q347.13-6.23 349.59-7.97L349.59-7.97L344.08-12.18L344.08-12.18Q343.79-12.47 343.79-13.19L343.79-13.19L343.79-13.19Q343.79-13.92 345.24-15.30L345.24-15.30L345.24-15.30Q346.69-16.67 347.49-16.67L347.49-16.67L347.49-16.67Q348.29-16.67 354.52-11.74L354.52-11.74L354.52-11.74Q372.50-32.04 380.91-38.42L380.91-38.42L380.91-38.42Q369.46-41.90 363.95-41.90L363.95-41.90L363.95-41.90Q362.35-41.90 360.90-41.69L360.90-41.69L360.90-41.69Q359.45-41.47 357.79-39.95L357.79-39.95L357.79-39.95Q356.12-38.42 356.12-36.54L356.12-36.54L356.12-36.54Q356.12-34.66 357.71-33.42L357.71-33.42L357.71-33.42Q359.31-32.19 359.31-31.46L359.31-31.46L359.31-31.46Q359.31-30.74 358.22-30.74L358.22-30.74L358.22-30.74Q357.13-30.74 354.67-33.64L354.67-33.64L354.67-33.64Q352.35-36.54 352.35-39.58L352.35-39.58L352.35-39.58Q352.35-44.66 359.74-46.25L359.74-46.25L359.74-46.25Q363.66-46.98 367.72-46.98L367.72-46.98L367.72-46.98Q371.78-46.98 387.73-41.76L387.73-41.76L387.73-41.76Q389.76-42.92 392.08-42.92L392.08-42.92L392.08-42.92Q398.17-42.92 398.17-39.29L398.17-39.29L398.17-39.29Q398.17-37.84 396.28-36.61L396.28-36.61L396.28-36.61Q394.40-35.38 391.79-35.38L391.79-35.38L391.79-35.38Q389.18-35.38 387.00-36.39L387.00-36.39L387.00-36.39Q373.23-27.84 357.42-9.42L357.42-9.42L362.64-5.36L362.64-5.36Q368.88-1.30 377.14-1.30L377.14-1.30L377.14-1.30Q385.41-1.30 389.32-3.91L389.32-3.91L389.32-3.91Q393.24-6.52 393.24-10.58L393.24-10.58L393.24-10.58Q393.24-12.47 392.51-14.14L392.51-14.14L392.51-14.14Q391.79-15.80 393.82-15.80L393.82-15.80L393.82-15.80Q394.54-15.80 395.27-14.14L395.27-14.14L395.27-14.14Q395.99-12.47 395.99-10.15L395.99-10.15L395.99-10.15Q395.99-4.35 390.48-0.58L390.48-0.58L390.48-0.58Q384.97 3.19 376.27 3.19L376.27 3.19L376.27 3.19Q366.70 3.19 360.47-0.43L360.47-0.43L360.47-0.43Q358.00-1.74 352.49-5.94ZM406.14 1.88L406.14 1.88L406.14 1.88Q404.55 1.88 403.25 1.45L403.25 1.45L403.25 1.45Q393.96-1.16 393.96-8.99L393.96-8.99L393.96-8.99Q393.96-19.14 406.73-32.48L406.73-32.48L406.73-32.48Q419.49-45.82 429.63-45.82L429.63-45.82L429.63-45.82Q432.97-45.82 435.07-44.01L435.07-44.01L435.07-44.01Q437.18-42.20 437.18-39.58L437.18-39.58L437.18-39.58Q437.18-31.46 424.92-24.07L424.92-24.07L424.92-24.07Q412.67-16.67 404.99-16.67L404.99-16.67L404.99-16.67Q403.82-16.67 402.95-16.96L402.95-16.96L402.95-16.96Q400.78-13.05 400.78-8.70L400.78-8.70L400.78-8.70Q400.78-1.16 407.96-1.16L407.96-1.16L407.96-1.16Q415.13-1.16 426.59-10.88L426.59-10.88L426.59-10.88Q435.44-17.98 441.67-25.95L441.67-25.95L441.67-25.95Q442.98-27.69 443.92-27.69L443.92-27.69L443.92-27.69Q444.86-27.69 444.86-26.82L444.86-26.82L444.86-26.82Q444.86-25.95 443.70-24.36L443.70-24.36L443.70-24.36Q435.87-14.06 424.85-6.09L424.85-6.09L424.85-6.09Q413.83 1.88 406.14 1.88ZM433.55-39.88L433.55-39.88L433.55-39.88Q433.55-41.61 429.85-41.61L429.85-41.61L429.85-41.61Q426.15-41.61 419.34-35.96L419.34-35.96L419.34-35.96Q410.20-28.42 405.13-20.15L405.13-20.15L405.13-20.15Q406-19.86 407.01-19.86L407.01-19.86L407.01-19.86Q412.52-19.86 421.73-25.74L421.73-25.74L421.73-25.74Q430.94-31.61 433.26-38.57L433.26-38.57L433.26-38.57Q433.55-39.29 433.55-39.88Z"
        fill="url(#editing-shiny-gradient)"></path>
    </g>
  </g>
  <g filter="url(#editing-shiny2)">
    <g transform="translate(30.96985125541687, 141.41000175476074)">
      <path
        d="M48.72 36.83L48.72 36.83L48.72 36.83Q43.21 36.83 37.92 32.91L37.92 32.91L37.92 32.91Q32.63 29.00 32.63 24.21L32.63 24.21L32.63 24.21Q32.63 21.17 35.67 21.17L35.67 21.17L35.67 21.17Q36.39 21.17 37.84 21.46L37.84 21.46L37.84 21.46Q39.58 27.55 40.74 29.72L40.74 29.72L40.74 29.72Q43.21 33.64 49.15 33.64L49.15 33.64L49.15 33.64Q66.99 33.64 92.94-15.08L92.94-15.08L119.04-61.62L119.04-61.62Q91.06-31.75 79.39-20.08L79.39-20.08L79.39-20.08Q67.71-8.41 63.36-5.80L63.36-5.80L63.36-5.80Q54.66-0.58 49.01-0.58L49.01-0.58L49.01-0.58Q40.74-0.58 40.74-10.29L40.74-10.29L40.74-10.29Q40.74-21.89 50.60-34.22L50.60-34.22L50.60-34.22Q51.33-35.09 56.77-41.69L56.77-41.69L56.77-41.69Q62.20-48.28 69.53-57.42L69.53-57.42L69.53-57.42Q76.85-66.55 81.71-75.04L81.71-75.04L81.71-75.04Q86.56-83.52 86.56-86.93L86.56-86.93L86.56-86.93Q86.56-90.33 84.53-91.35L84.53-91.35L84.53-91.35Q80.33-93.52 74.96-93.52L74.96-93.52L74.96-93.52Q59.59-93.52 32.48-74.96L32.48-74.96L32.48-74.96Q21.17-67.28 14.50-57.13L14.50-57.13L14.50-57.13Q7.83-46.98 7.83-38.42L7.83-38.42L7.83-38.42Q7.83-29.87 16.09-27.69L16.09-27.69L16.09-27.69Q18.70-26.97 21.17-26.97L21.17-26.97L21.17-26.97Q28.56-26.97 37.55-33.35L37.55-33.35L37.55-33.35Q48.14-40.45 49.44-40.89L49.44-40.89L49.44-40.89Q47.99-35.52 37.99-29.14L37.99-29.14L37.99-29.14Q26.97-22.33 17.40-22.33L17.40-22.33L17.40-22.33Q16.09-22.33 12.54-22.84L12.54-22.84L12.54-22.84Q8.99-23.34 5.51-28.13L5.51-28.13L5.51-28.13Q2.03-32.91 2.03-39.73L2.03-39.73L2.03-39.73Q2.03-59.45 30.88-80.04L30.88-80.04L30.88-80.04Q39.29-86.13 53.07-91.06L53.07-91.06L53.07-91.06Q66.84-95.99 75.33-95.99L75.33-95.99L75.33-95.99Q83.81-95.99 88.23-93.31L88.23-93.31L88.23-93.31Q92.65-90.63 92.65-84.75L92.65-84.75L92.65-84.75Q92.65-78.88 84.53-66.48L84.53-66.48L84.53-66.48Q76.41-54.08 58.87-32.77L58.87-32.77L58.87-32.77Q55.24-28.56 52.20-21.82L52.20-21.82L52.20-21.82Q49.15-15.08 49.15-11.09L49.15-11.09L49.15-11.09Q49.15-7.10 52.27-7.10L52.27-7.10L52.27-7.10Q55.39-7.10 61.62-11.60L61.62-11.60L61.62-11.60Q79.31-24.21 96.93-42.20L96.93-42.20L96.93-42.20Q114.55-60.17 122.81-72.35L122.81-72.35L122.81-72.35Q128.76-80.91 135.43-80.91L135.43-80.91L135.43-80.91Q137.75-80.91 137.75-79.46L137.75-79.46L137.75-79.46Q137.75-79.17 137.46-78.30L137.46-78.30L137.46-78.30Q119.19-46.40 87.72 6.38L87.72 6.38L87.72 6.38Q78.44 21.60 67.93 29.22L67.93 29.22L67.93 29.22Q57.42 36.83 48.72 36.83ZM176.03-43.35L176.03-43.35L178.06-43.79L178.06-43.79Q179.65-43.79 181.10-42.48L181.10-42.48L181.10-42.48Q182.55-41.18 182.55-40.45L182.55-40.45L182.55-40.45Q182.55-39.73 173.56-26.46L173.56-26.46L173.56-26.46Q164.57-13.19 164.57-7.97L164.57-7.97L164.57-7.97Q164.57-7.54 164.72-7.10L164.72-7.10L164.72-7.10Q165.44-3.77 167.91-3.77L167.91-3.77L167.91-3.77Q175.45-3.77 195.46-28.71L195.46-28.71L195.46-28.71Q195.89-29.29 196.47-29.29L196.47-29.29L196.47-29.29Q197.05-29.29 197.05-28.20L197.05-28.20L197.05-28.20Q197.05-27.11 195.75-25.38L195.75-25.38L195.75-25.38Q177.19-0.58 167.47-0.58L167.47-0.58L167.47-0.58Q166.17-0.58 165.01-1.01L165.01-1.01L165.01-1.01Q158.63-3.48 158.63-10.58L158.63-10.58L158.63-10.58Q158.63-13.05 159.21-15.51L159.21-15.51L150.22-6.81L150.22-6.81Q141.66 0.72 137.82 0.72L137.82 0.72L137.82 0.72Q133.98 0.72 130.50-1.74L130.50-1.74L130.50-1.74Q126.58-4.64 126.58-9.42L126.58-9.42L126.58-9.42Q126.58-20.01 141.38-34.73L141.38-34.73L141.38-34.73Q156.16-49.44 168.49-49.44L168.49-49.44L168.49-49.44Q173.27-49.44 174.87-46.11L174.87-46.11L174.87-46.11Q175.30-44.95 175.59-44.15L175.59-44.15L175.59-44.15Q175.88-43.35 176.03-43.35ZM132.67-7.68L132.67-7.68L132.67-7.68Q132.67-2.46 136.30-2.46L136.30-2.46L136.30-2.46Q144.71-2.46 159.21-20.88L159.21-20.88L174.58-42.05L174.58-42.05Q173.42-44.08 170.81-44.08L170.81-44.08L170.81-44.08Q161.96-44.08 147.32-30.38L147.32-30.38L147.32-30.38Q132.67-16.67 132.67-7.68ZM210.97-45.82L210.97-45.82L210.97-45.82Q214.89-45.82 214.89-42.77L214.89-42.77L214.89-42.77Q214.89-41.90 214.45-41.03L214.45-41.03L214.45-41.03Q201.41-22.91 198.79-13.63L198.79-13.63L198.79-13.63Q232.58-47.41 239.83-47.41L239.83-47.41L239.83-47.41Q240.56-47.56 241.13-47.56L241.13-47.56L241.13-47.56Q245.19-47.56 245.19-43.93L245.19-43.93L245.19-43.93Q245.19-43.21 244.91-42.48L244.91-42.48L244.91-42.48Q244.62-41.76 239.10-34.66L239.10-34.66L239.10-34.66Q232.72-27.11 228.30-20.15L228.30-20.15L228.30-20.15Q223.88-13.19 223.88-8.55L223.88-8.55L223.88-8.55Q223.88-3.91 225.91-3.91L225.91-3.91L225.91-3.91Q232.29-3.91 248.09-21.46L248.09-21.46L248.09-21.46Q248.38-21.75 249.11-22.76L249.11-22.76L249.11-22.76Q251.28-25.38 251.72-25.38L251.72-25.38L251.72-25.38Q252.15-25.38 252.15-23.92L252.15-23.92L252.15-23.92Q252.15-22.47 250.13-20.15L250.13-20.15L250.13-20.15Q232.14 0.29 224.60 0.29L224.60 0.29L224.60 0.29Q217.50 0.29 217.50-7.54L217.50-7.54L217.50-7.54Q217.50-15.37 223.30-25.52L223.30-25.52L232.58-40.60L232.58-40.60Q222.72-33.35 215.03-24.72L215.03-24.72L215.03-24.72Q207.35-16.09 201.04-7.97L201.04-7.97L201.04-7.97Q194.73 0.14 193.72 0.14L193.72 0.14L193.72 0.14Q191.54 0.14 190.31-1.67L190.31-1.67L190.31-1.67Q189.08-3.48 189.08-6.16L189.08-6.16L189.08-6.16Q189.08-8.84 190.97-13.34L190.97-13.34L190.97-13.34Q192.85-17.83 195.75-24.21L195.75-24.21L187.05-15.08L187.05-15.08Q183.86-11.89 183.06-11.89L183.06-11.89L183.06-11.89Q182.26-11.89 182.26-12.83L182.26-12.83L182.26-12.83Q182.26-13.77 183.42-14.93L183.42-14.93L183.42-14.93Q188.79-20.30 192.70-25.23L192.70-25.23L192.70-25.23Q196.47-30.16 208.22-44.08L208.22-44.08L208.22-44.08Q209.53-45.82 210.97-45.82ZM294.50-44.22L294.50-44.22L296.52-44.66L296.52-44.66Q298.41-44.66 299.50-43.50L299.50-43.50L299.50-43.50Q300.58-42.34 300.58-41.69L300.58-41.69L300.58-41.69Q300.58-41.03 300.44-40.24L300.44-40.24L300.44-40.24Q300.30-39.44 296.24-32.91L296.24-32.91L296.24-32.91Q291.16-24.07 287.82-17.98L287.82-17.98L287.82-17.98Q276.08 3.91 269.84 12.03L269.84 12.03L269.84 12.03Q256.50 29.72 244.47 29.72L244.47 29.72L244.47 29.72Q240.26 29.72 237.15 26.17L237.15 26.17L237.15 26.17Q234.03 22.62 233.88 18.27L233.88 18.27L233.88 18.27Q234.32 16.53 235.19 16.53L235.19 16.53L235.19 16.53Q235.63 16.53 235.91 17.54L235.91 17.54L235.91 17.54Q236.64 21.31 238.67 23.34L238.67 23.34L238.67 23.34Q240.70 25.38 242.73 25.38L242.73 25.38L242.73 25.38Q251.00 25.38 260.42 14.50L260.42 14.50L260.42 14.50Q266.65 7.25 274.19-6.67L274.19-6.67L281.44-21.02L270.57-10.00L270.57-10.00Q260.13 0 256.29 0L256.29 0L256.29 0Q252.44 0 248.97-2.61L248.97-2.61L248.97-2.61Q245.05-5.51 245.05-10.29L245.05-10.29L245.05-10.29Q245.05-20.88 259.91-35.52L259.91-35.52L259.91-35.52Q274.77-50.17 286.95-50.17L286.95-50.17L286.95-50.17Q291.88-50.17 293.33-46.98L293.33-46.98L293.33-46.98Q293.77-45.82 294.06-45.02L294.06-45.02L294.06-45.02Q294.35-44.22 294.50-44.22ZM251.14-8.55L251.14-8.55L251.14-8.55Q251.14-3.33 254.76-3.33L254.76-3.33L254.76-3.33Q263.18-3.33 277.68-21.75L277.68-21.75L293.05-42.92L293.05-42.92Q292.18-44.95 289.42-44.95L289.42-44.95L289.42-44.95Q280.43-44.95 265.78-31.10L265.78-31.10L265.78-31.10Q251.14-17.25 251.14-8.55ZM337.56-46.69L337.56-46.69L358.44-46.98L358.44-46.98Q358.88-46.69 358.88-46.54L358.88-46.54L358.88-46.54Q358.88-45.24 340.82-42.92L340.82-42.92L340.82-42.92Q322.77-40.60 321.32-40.16L321.32-40.16L321.32-40.16Q318.56-37.70 311.17-25.45L311.17-25.45L311.17-25.45Q303.77-13.19 303.77-7.54L303.77-7.54L303.77-7.54Q303.77-2.17 311.17-2.17L311.17-2.17L311.17-2.17Q314.65-2.17 320.30-4.35L320.30-4.35L320.30-4.35Q325.96-6.52 329.00-8.41L329.00-8.41L329.00-8.41Q337.13-13.48 346.40-23.34L346.40-23.34L346.40-23.34Q348.43-25.38 349.16-25.38L349.16-25.38L349.16-25.38Q349.59-25.38 349.59-24.50L349.59-24.50L349.59-24.50Q349.59-23.63 347.42-21.02L347.42-21.02L347.42-21.02Q339.88-11.74 330.45-6.09L330.45-6.09L330.45-6.09Q319.14 0.87 308.85 0.87L308.85 0.87L308.85 0.87Q304.35 0.87 301.53-1.09L301.53-1.09L301.53-1.09Q298.70-3.04 298.70-8.99L298.70-8.99L298.70-8.99Q298.70-14.93 303.92-25.30L303.92-25.30L303.92-25.30Q309.14-35.67 311.89-40.74L311.89-40.74L311.89-40.74Q309.86-40.31 308.41-40.31L308.41-40.31L308.41-40.31Q304.21-40.31 304.21-43.64L304.21-43.64L304.21-43.64Q304.21-46.11 307.69-47.13L307.69-47.13L307.69-47.13Q308.13-47.13 308.99-47.27L308.99-47.27L317.40-47.27L317.40-47.27Q320.01-50.60 323.35-54.95L323.35-54.95L323.35-54.95Q327.41-60.17 328.86-60.17L328.86-60.17L328.86-60.17Q330.31-60.17 332.48-59.01L332.48-59.01L332.48-59.01Q334.66-57.85 334.66-56.26L334.66-56.26L334.66-56.26Q334.66-54.66 327.70-46.83L327.70-46.83L327.70-46.83Q331.47-46.69 337.56-46.69ZM352.49-5.94L352.49-5.94L352.49-5.94Q346.69-1.88 344.23-1.88L344.23-1.88L344.23-1.88Q340.89-1.88 340.89-5.51L340.89-5.51L340.89-5.51Q340.89-6.81 341.76-8.70L341.76-8.70L341.76-8.70Q342.63-10.58 343.50-10.58L343.50-10.58L343.50-10.58Q344.81-10.58 344.08-8.41L344.08-8.41L344.08-8.41Q343.65-6.23 345.39-6.23L345.39-6.23L345.39-6.23Q347.13-6.23 349.59-7.97L349.59-7.97L344.08-12.18L344.08-12.18Q343.79-12.47 343.79-13.19L343.79-13.19L343.79-13.19Q343.79-13.92 345.24-15.30L345.24-15.30L345.24-15.30Q346.69-16.67 347.49-16.67L347.49-16.67L347.49-16.67Q348.29-16.67 354.52-11.74L354.52-11.74L354.52-11.74Q372.50-32.04 380.91-38.42L380.91-38.42L380.91-38.42Q369.46-41.90 363.95-41.90L363.95-41.90L363.95-41.90Q362.35-41.90 360.90-41.69L360.90-41.69L360.90-41.69Q359.45-41.47 357.79-39.95L357.79-39.95L357.79-39.95Q356.12-38.42 356.12-36.54L356.12-36.54L356.12-36.54Q356.12-34.66 357.71-33.42L357.71-33.42L357.71-33.42Q359.31-32.19 359.31-31.46L359.31-31.46L359.31-31.46Q359.31-30.74 358.22-30.74L358.22-30.74L358.22-30.74Q357.13-30.74 354.67-33.64L354.67-33.64L354.67-33.64Q352.35-36.54 352.35-39.58L352.35-39.58L352.35-39.58Q352.35-44.66 359.74-46.25L359.74-46.25L359.74-46.25Q363.66-46.98 367.72-46.98L367.72-46.98L367.72-46.98Q371.78-46.98 387.73-41.76L387.73-41.76L387.73-41.76Q389.76-42.92 392.08-42.92L392.08-42.92L392.08-42.92Q398.17-42.92 398.17-39.29L398.17-39.29L398.17-39.29Q398.17-37.84 396.28-36.61L396.28-36.61L396.28-36.61Q394.40-35.38 391.79-35.38L391.79-35.38L391.79-35.38Q389.18-35.38 387.00-36.39L387.00-36.39L387.00-36.39Q373.23-27.84 357.42-9.42L357.42-9.42L362.64-5.36L362.64-5.36Q368.88-1.30 377.14-1.30L377.14-1.30L377.14-1.30Q385.41-1.30 389.32-3.91L389.32-3.91L389.32-3.91Q393.24-6.52 393.24-10.58L393.24-10.58L393.24-10.58Q393.24-12.47 392.51-14.14L392.51-14.14L392.51-14.14Q391.79-15.80 393.82-15.80L393.82-15.80L393.82-15.80Q394.54-15.80 395.27-14.14L395.27-14.14L395.27-14.14Q395.99-12.47 395.99-10.15L395.99-10.15L395.99-10.15Q395.99-4.35 390.48-0.58L390.48-0.58L390.48-0.58Q384.97 3.19 376.27 3.19L376.27 3.19L376.27 3.19Q366.70 3.19 360.47-0.43L360.47-0.43L360.47-0.43Q358.00-1.74 352.49-5.94ZM406.14 1.88L406.14 1.88L406.14 1.88Q404.55 1.88 403.25 1.45L403.25 1.45L403.25 1.45Q393.96-1.16 393.96-8.99L393.96-8.99L393.96-8.99Q393.96-19.14 406.73-32.48L406.73-32.48L406.73-32.48Q419.49-45.82 429.63-45.82L429.63-45.82L429.63-45.82Q432.97-45.82 435.07-44.01L435.07-44.01L435.07-44.01Q437.18-42.20 437.18-39.58L437.18-39.58L437.18-39.58Q437.18-31.46 424.92-24.07L424.92-24.07L424.92-24.07Q412.67-16.67 404.99-16.67L404.99-16.67L404.99-16.67Q403.82-16.67 402.95-16.96L402.95-16.96L402.95-16.96Q400.78-13.05 400.78-8.70L400.78-8.70L400.78-8.70Q400.78-1.16 407.96-1.16L407.96-1.16L407.96-1.16Q415.13-1.16 426.59-10.88L426.59-10.88L426.59-10.88Q435.44-17.98 441.67-25.95L441.67-25.95L441.67-25.95Q442.98-27.69 443.92-27.69L443.92-27.69L443.92-27.69Q444.86-27.69 444.86-26.82L444.86-26.82L444.86-26.82Q444.86-25.95 443.70-24.36L443.70-24.36L443.70-24.36Q435.87-14.06 424.85-6.09L424.85-6.09L424.85-6.09Q413.83 1.88 406.14 1.88ZM433.55-39.88L433.55-39.88L433.55-39.88Q433.55-41.61 429.85-41.61L429.85-41.61L429.85-41.61Q426.15-41.61 419.34-35.96L419.34-35.96L419.34-35.96Q410.20-28.42 405.13-20.15L405.13-20.15L405.13-20.15Q406-19.86 407.01-19.86L407.01-19.86L407.01-19.86Q412.52-19.86 421.73-25.74L421.73-25.74L421.73-25.74Q430.94-31.61 433.26-38.57L433.26-38.57L433.26-38.57Q433.55-39.29 433.55-39.88Z"
        fill="url(#editing-shiny-gradient2)"></path>
    </g>
  </g>
  <style>
    text {
      font-size: 64px;
      font-family: Arial Black;
      dominant-baseline: central;
      text-anchor: middle;
    }
  </style>
</svg>