<?xml version="1.0" standalone="no"?>
<!DOCTYPE svg PUBLIC "-//W3C//DTD SVG 20010904//EN"
 "http://www.w3.org/TR/2001/REC-SVG-20010904/DTD/svg10.dtd">
<svg version="1.0" xmlns="http://www.w3.org/2000/svg"
 width="640.000000pt" height="218.000000pt" viewBox="0 0 640.000000 218.000000"
 preserveAspectRatio="xMidYMid meet">

<g transform="translate(0.000000,218.000000) scale(0.100000,-0.100000)"
fill="#000000" stroke="none">
<path d="M1875 2156 c-12 -12 -21 -31 -22 -42 -2 -33 -8 -51 -25 -75 -16 -23
-17 -23 -17 -3 -1 11 4 25 11 32 9 9 9 12 0 12 -6 0 -15 -15 -20 -32 -4 -18
-13 -33 -20 -33 -6 0 -23 -24 -38 -53 -16 -32 -63 -90 -121 -148 -52 -53 -92
-98 -88 -102 3 -3 33 22 65 56 33 34 62 62 65 62 13 0 -34 -56 -126 -150 -55
-56 -98 -104 -95 -107 2 -3 -10 -17 -27 -33 -18 -16 -33 -27 -34 -26 -1 1 5
22 13 46 9 25 17 57 19 71 14 102 48 246 66 270 l20 28 -25 39 c-16 26 -39 45
-68 57 -50 21 -171 29 -211 13 -21 -8 -35 -8 -54 1 -20 9 -28 9 -33 0 -4 -6
-13 -8 -20 -4 -9 5 -10 2 -6 -13 6 -17 2 -21 -20 -24 l-27 -3 34 -44 c19 -24
49 -51 66 -60 l33 -16 -6 -75 c-3 -41 -10 -118 -15 -170 -5 -52 -12 -134 -16
-183 -5 -80 -8 -88 -29 -93 -13 -3 -27 -3 -33 0 -6 4 -65 -12 -132 -35 -137
-47 -180 -47 -214 -4 -23 28 -50 33 -59 9 -11 -30 -6 -174 8 -207 10 -24 26
-37 60 -51 l47 -19 127 53 c161 66 172 69 172 41 0 -11 5 -21 10 -21 6 0 10
-9 10 -19 0 -11 5 -23 11 -27 8 -5 10 -40 6 -118 -3 -61 -2 -165 2 -231 6 -97
4 -126 -8 -153 -9 -19 -20 -31 -28 -28 -13 6 -36 -27 -38 -56 -1 -9 3 -16 9
-15 16 3 7 -35 -12 -50 -10 -7 -25 -10 -34 -7 -23 7 -34 -32 -15 -54 8 -9 17
-28 21 -42 9 -36 80 -84 113 -75 23 5 25 4 21 -19 -6 -32 12 -34 38 -5 10 11
27 25 37 31 28 14 85 20 92 8 9 -14 48 -13 63 2 7 7 12 27 12 44 0 18 4 36 10
39 5 3 7 18 4 34 -4 18 0 33 10 44 9 8 16 22 16 29 0 8 6 20 13 27 9 11 9 13
0 7 -17 -10 -16 4 2 28 8 11 15 28 15 38 0 10 7 21 15 24 8 4 12 10 9 15 -5 9
16 56 81 179 19 36 35 71 35 78 0 7 9 31 20 52 11 22 19 40 17 40 -2 0 -27
-29 -57 -65 -29 -36 -55 -63 -58 -60 -3 3 -16 -5 -29 -17 -12 -12 -25 -19 -28
-16 -3 3 21 28 54 56 32 28 61 62 63 75 4 23 2 22 -32 -12 -79 -79 -174 -153
-178 -140 -2 8 -6 21 -8 29 -7 21 -11 310 -5 310 48 -1 152 -29 211 -57 170
-80 234 -120 395 -247 105 -82 303 -277 345 -339 14 -20 31 -37 38 -37 6 0 12
-4 12 -9 0 -5 16 -18 35 -29 19 -12 51 -44 71 -72 43 -60 60 -70 124 -76 46
-4 49 -3 61 26 8 16 20 30 26 30 8 0 13 12 13 28 0 16 3 32 7 36 15 15 10 83
-10 121 -23 44 -28 73 -15 81 12 8 9 57 -5 76 -7 9 -32 21 -56 28 -35 9 -48
20 -73 61 -31 49 -49 68 -28 29 6 -11 8 -24 5 -29 -3 -5 2 -17 11 -26 20 -19
15 -28 -7 -12 -26 20 -89 118 -82 130 3 5 1 7 -5 3 -6 -3 -15 6 -21 21 -10 24
-10 22 -6 -22 l4 -50 -12 34 c-12 31 -14 32 -21 15 -8 -17 -9 -16 -21 10 -12
28 -12 28 -18 5 -6 -23 -7 -23 -22 -4 -12 16 -14 17 -9 3 6 -17 -11 -26 -18
-10 -1 4 -34 25 -72 47 -39 21 -80 49 -93 63 -23 25 -164 91 -363 169 -119 47
-217 75 -327 94 l-64 11 7 37 c8 46 33 67 103 87 31 8 75 24 98 35 26 12 71
21 120 24 277 16 263 16 263 -5 0 -13 -21 -33 -62 -60 -34 -22 -66 -40 -72
-40 -5 0 -7 -2 -4 -5 3 -3 32 2 64 11 32 8 70 17 84 19 14 2 54 13 90 24 40
13 109 23 175 26 75 4 114 10 125 20 9 8 22 15 28 15 18 0 15 13 -14 69 -22
42 -36 55 -81 76 -29 14 -58 23 -62 20 -5 -3 -22 0 -38 6 -25 10 -81 18 -153
22 -14 1 -31 8 -38 17 -11 13 -11 13 -6 -2 4 -12 0 -17 -13 -16 -27 1 -209
-30 -278 -47 -73 -17 -78 -18 -70 -5 3 6 18 10 33 11 23 0 24 2 8 8 -18 7 -18
8 -2 14 42 16 206 130 206 144 0 8 4 12 8 9 5 -3 21 3 37 14 15 10 34 16 41
13 8 -3 14 -1 14 4 0 14 56 43 84 43 15 0 42 6 60 14 29 12 34 20 40 59 13 89
-26 241 -76 294 -19 21 -30 23 -107 22 -75 -1 -89 -4 -106 -23z m-324 -503
c-5 -10 -22 -29 -37 -43 -29 -25 -21 -12 20 37 23 27 30 30 17 6z m56 -33 c-4
-24 -37 -61 -48 -54 -5 3 -13 -6 -18 -19 -10 -25 -31 -45 -31 -30 0 5 6 16 12
24 7 7 -12 -10 -42 -38 -51 -49 -80 -65 -80 -45 0 19 167 165 207 181 2 1 2
-8 0 -19z m28 11 c3 -5 1 -12 -5 -16 -5 -3 -10 1 -10 9 0 18 6 21 15 7z m50
-31 c-36 -38 -133 -105 -141 -98 -5 6 151 128 163 128 4 0 -6 -14 -22 -30z
m-205 -30 c0 -3 -16 -22 -36 -41 -24 -22 -33 -27 -26 -13 6 11 18 26 26 33 9
8 14 17 11 20 -2 4 2 8 10 8 8 0 15 -3 15 -7z m-2 -435 c4 -4 -8 -5 -27 -1
-18 3 -44 6 -57 6 -17 0 -24 6 -24 18 0 18 2 18 50 2 28 -9 54 -21 58 -25z"/>
<path d="M1574 1588 l-19 -23 23 19 c12 11 22 21 22 23 0 8 -8 2 -26 -19z"/>
<path d="M3335 2092 c-3 -7 -5 -15 -5 -17 0 -1 24 -21 53 -43 28 -23 79 -66
111 -95 l59 -54 -32 -46 c-17 -25 -58 -65 -91 -88 -70 -49 -64 -66 14 -37 57
21 124 31 140 20 6 -4 29 -8 51 -9 52 -1 155 -21 177 -33 36 -20 128 -1 128
26 0 7 9 28 19 45 23 38 20 49 -47 127 -62 73 -187 134 -347 168 -44 9 -88 21
-99 26 -10 6 -43 13 -72 17 -41 6 -54 4 -59 -7z"/>
<path d="M4825 1810 c-3 -5 -15 -10 -26 -10 -11 0 -22 -7 -25 -15 -4 -8 -16
-15 -28 -16 -11 0 -15 -3 -8 -6 23 -9 12 -22 -25 -28 -21 -4 -69 -15 -107 -26
-94 -25 -97 -16 -5 11 116 34 127 38 104 39 -38 1 -191 -47 -356 -112 -208
-83 -236 -88 -282 -53 -46 36 -71 35 -63 -1 4 -16 10 -63 15 -105 9 -84 20
-106 89 -180 59 -63 84 -63 228 1 l109 49 5 -122 c3 -66 3 -164 0 -216 l-5
-95 -35 3 c-32 2 -33 1 -17 -12 16 -12 16 -15 2 -29 -9 -9 -32 -19 -53 -22
-20 -4 -73 -13 -117 -21 -108 -18 -270 -44 -282 -44 -4 0 -7 17 -5 39 2 21 -1
41 -6 45 -6 4 -8 -2 -4 -16 4 -16 2 -19 -8 -13 -8 5 -11 4 -7 -1 3 -5 -3 -21
-14 -34 l-19 -25 10 28 c11 30 4 77 -11 77 -5 0 -9 -8 -9 -17 0 -14 -2 -15 -9
-5 -11 18 -39 -52 -48 -117 -3 -25 -12 -54 -20 -63 -13 -15 -13 -22 2 -63 10
-25 22 -48 28 -52 13 -8 88 18 94 34 3 7 9 10 14 8 5 -3 19 1 32 10 13 8 26
12 29 9 8 -7 130 23 177 44 20 9 41 17 46 18 6 1 37 9 70 18 69 19 109 21 85
6 -21 -13 58 -2 88 13 20 9 26 7 48 -16 15 -17 30 -24 41 -20 9 4 21 -1 28
-10 11 -15 13 -14 24 10 10 22 14 24 22 12 7 -11 9 -8 10 11 0 22 1 23 8 6 6
-16 9 -17 16 -6 7 11 10 10 16 -6 7 -18 8 -18 8 2 1 37 27 47 124 52 126 5
160 3 167 -9 4 -6 29 -14 56 -18 l49 -8 -40 -7 c-22 -4 -44 -9 -49 -10 -6 -1
24 -9 65 -18 140 -30 144 -32 203 -83 79 -70 127 -85 186 -59 26 12 39 25 47
52 12 38 4 59 -40 109 -13 14 -17 28 -12 43 5 15 4 20 -4 16 -6 -4 -16 2 -23
14 -7 11 -23 20 -35 20 -12 0 -52 25 -90 55 -69 55 -123 83 -123 64 0 -6 -12
-8 -29 -4 -17 3 -38 2 -48 -3 -10 -5 -103 -13 -206 -17 l-189 -7 7 144 c4 79
11 161 16 183 6 22 12 59 14 82 2 23 9 52 16 65 7 13 12 28 11 34 -4 19 26 36
81 49 50 11 53 10 112 -23 68 -40 141 -57 149 -35 3 7 15 13 26 13 15 0 20 7
20 29 0 17 -4 33 -10 36 -5 3 -10 30 -10 59 0 34 -5 58 -14 65 -8 7 -24 36
-36 66 -12 30 -28 55 -36 55 -7 0 -24 15 -36 33 -17 23 -29 31 -45 29 -16 -2
-23 2 -23 12 0 21 -17 20 -38 0 -14 -15 -17 -15 -27 0 -14 18 -31 21 -40 6z"/>
<path d="M3607 1569 c-11 -6 -24 -12 -31 -13 -6 -1 -22 -12 -34 -24 -22 -22
-59 -31 -47 -12 3 6 13 10 21 10 8 0 14 4 14 10 0 5 -37 -4 -82 -20 -98 -34
-224 -64 -237 -56 -15 10 -61 -16 -61 -33 0 -9 -6 -27 -13 -41 -13 -25 -11
-40 16 -98 13 -28 95 -77 121 -73 11 2 48 0 82 -4 l62 -6 -16 -39 c-9 -21 -21
-36 -26 -33 -5 4 -6 1 -3 -4 4 -6 -9 -43 -29 -83 -35 -72 -74 -210 -74 -262 0
-29 -41 -78 -64 -78 -8 0 -17 -8 -21 -17 -12 -28 -14 -93 -4 -93 6 0 2 -11 -8
-25 -14 -20 -24 -24 -48 -20 -28 4 -29 4 -11 -10 10 -8 23 -16 28 -17 13 -5
20 -78 8 -78 -5 0 -10 7 -10 15 0 8 -4 15 -10 15 -5 0 -10 -10 -10 -22 1 -28
25 -63 34 -49 14 21 81 -22 71 -46 -2 -8 -1 -12 4 -9 4 3 17 -1 27 -9 25 -19
74 -19 102 1 12 8 22 12 22 7 0 -13 40 56 40 70 1 6 14 28 30 47 17 19 30 39
30 45 1 5 19 28 40 50 22 22 43 48 46 57 3 10 12 18 20 18 8 0 13 6 11 13 -1
6 4 11 11 9 8 -1 11 2 7 8 -3 6 7 27 24 47 17 21 31 41 31 45 0 8 48 87 60 98
14 13 70 90 70 95 0 3 16 27 35 54 31 45 32 49 13 46 -12 -3 -26 -9 -32 -15
-13 -13 -29 -13 -21 0 10 17 14 50 6 50 -4 0 -16 -9 -27 -21 -10 -12 -32 -31
-49 -42 -28 -20 -27 -18 10 26 22 27 51 58 64 70 14 12 43 39 65 60 l41 39
-49 -36 c-27 -20 -53 -36 -57 -36 -5 0 -43 -27 -86 -60 -42 -32 -79 -57 -81
-55 -2 2 -14 -7 -26 -20 -31 -36 -270 -235 -280 -235 -5 0 -1 9 9 20 19 21 7
28 -13 8 -18 -18 -20 -8 -11 62 11 83 62 185 134 272 47 57 68 73 149 112 51
25 98 46 104 46 6 0 32 13 58 30 26 16 51 27 55 24 5 -3 6 2 3 10 -4 11 0 16
11 16 12 0 16 6 12 20 -3 11 -1 23 4 26 5 3 7 10 3 15 -3 5 -9 7 -14 4 -5 -3
-11 -1 -15 5 -3 5 -1 10 5 10 6 0 8 5 4 11 -3 6 -15 8 -26 6 -16 -5 -19 -2
-15 13 5 20 -30 38 -85 42 -15 1 -24 6 -22 10 3 4 0 8 -5 8 -6 0 -11 7 -11 15
0 17 -27 19 -53 4z m16 -26 c-7 -2 -19 -2 -25 0 -7 3 -2 5 12 5 14 0 19 -2 13
-5z"/>
<path d="M1091 1054 c0 -11 3 -14 6 -6 3 7 2 16 -1 19 -3 4 -6 -2 -5 -13z"/>
<path d="M1540 923 c-30 -31 -41 -46 -25 -33 29 24 91 90 83 90 -2 0 -28 -26
-58 -57z"/>
<path d="M4935 760 c-3 -6 1 -7 9 -4 18 7 21 14 7 14 -6 0 -13 -4 -16 -10z"/>
<path d="M2711 544 c0 -11 3 -14 6 -6 3 7 2 16 -1 19 -3 4 -6 -2 -5 -13z"/>
<path d="M2680 536 c0 -9 5 -16 10 -16 6 0 10 4 10 9 0 6 -4 13 -10 16 -5 3
-10 -1 -10 -9z"/>
</g>
</svg>
